{"accessors" : [{"bufferView" : 0, "byteOffset" : 0, "componentType" : 5123, "count" : 618, "type" : "SCALAR", "max" : [555], "min" : [0]}, {"bufferView" : 1, "byteOffset" : 0, "componentType" : 5126, "count" : 556, "type" : "VEC3", "max" : [0.051115360110998154, 1.7428324222564697, 0.10859894007444382], "min" : [0.01296517439186573, 1.7047407627105713, 0.08963789790868759], "name" : "POSITION"}, {"bufferView" : 1, "byteOffset" : 12, "componentType" : 5126, "count" : 556, "type" : "VEC2", "max" : [0.9646214246749878, 0.9818061590194702], "min" : [0.019903719425201416, 0.020990610122680664], "name" : "TEXCOORD_0"}, {"bufferView" : 1, "byteOffset" : 20, "componentType" : 5126, "count" : 556, "type" : "VEC3", "max" : [0.9406006932258606, 0.9512310028076172, 1.0000042915344238], "min" : [-0.9471414089202881, -0.9485119581222534, -1.0000044107437134], "name" : "NORMAL"}, {"bufferView" : 0, "byteOffset" : 1236, "componentType" : 5123, "count" : 618, "type" : "SCALAR", "max" : [562], "min" : [0]}, {"bufferView" : 2, "byteOffset" : 0, "componentType" : 5126, "count" : 563, "type" : "VEC3", "max" : [-0.01323204580694437, 1.742870807647705, 0.10859900712966919], "min" : [-0.05123056471347809, 1.7047005891799927, 0.08963795751333237], "name" : "POSITION"}, {"bufferView" : 2, "byteOffset" : 12, "componentType" : 5126, "count" : 563, "type" : "VEC2", "max" : [0.9585750699043274, 0.966354489326477], "min" : [0.006885886192321777, 0.022762417793273926], "name" : "TEXCOORD_0"}, {"bufferView" : 2, "byteOffset" : 20, "componentType" : 5126, "count" : 563, "type" : "VEC3", "max" : [0.9310762286186218, 0.9478710889816284, 1.0000044107437134], "min" : [-0.9491648077964783, -0.9364743828773499, -1.0000044107437134], "name" : "NORMAL"}, {"bufferView" : 0, "byteOffset" : 2472, "componentType" : 5123, "count" : 4626, "type" : "SCALAR", "max" : [4069], "min" : [0]}, {"bufferView" : 3, "byteOffset" : 0, "componentType" : 5126, "count" : 4070, "type" : "VEC3", "max" : [0.5314633846282959, 1.0887292623519897, 0.14859196543693542], "min" : [-0.5314706563949585, 0.09465650469064713, -0.09026208519935608], "name" : "POSITION"}, {"bufferView" : 3, "byteOffset" : 12, "componentType" : 5126, "count" : 4070, "type" : "VEC2", "max" : [0.9857610464096069, 0.9892195463180542], "min" : [0.018731044605374336, 0.08261322975158691], "name" : "TEXCOORD_0"}, {"bufferView" : 3, "byteOffset" : 20, "componentType" : 5126, "count" : 4070, "type" : "VEC3", "max" : [0.9988234639167786, 0.8005251884460449, 0.9933874011039734], "min" : [-0.9988214373588562, -0.9900117516517639, -0.991820216178894], "name" : "NORMAL"}, {"bufferView" : 0, "byteOffset" : 11724, "componentType" : 5123, "count" : 12282, "type" : "SCALAR", "max" : [10910], "min" : [0]}, {"bufferView" : 4, "byteOffset" : 0, "componentType" : 5126, "count" : 10911, "type" : "VEC3", "max" : [0.09579434990882874, 1.833083987236023, 0.14130838215351105], "min" : [-0.09610727429389954, 1.5206059217453003, -0.08657777309417725], "name" : "POSITION"}, {"bufferView" : 4, "byteOffset" : 12, "componentType" : 5126, "count" : 10911, "type" : "VEC2", "max" : [0.9943000078201294, 0.9807000160217285], "min" : [0.004999999888241291, 0.004350006580352783], "name" : "TEXCOORD_0"}, {"bufferView" : 4, "byteOffset" : 20, "componentType" : 5126, "count" : 10911, "type" : "VEC3", "max" : [0.9992185235023499, 0.9998710751533508, 0.9999849200248718], "min" : [-0.9992175102233887, -0.9999947547912598, -0.9999960064888], "name" : "NORMAL"}, {"bufferView" : 0, "byteOffset" : 36288, "componentType" : 5123, "count" : 8403, "type" : "SCALAR", "max" : [7651], "min" : [0]}, {"bufferView" : 5, "byteOffset" : 0, "componentType" : 5126, "count" : 7652, "type" : "VEC3", "max" : [0.21410346031188965, 1.1011371612548828, 0.14236974716186523], "min" : [-0.20957109332084656, 0.16352184116840363, -0.13931411504745483], "name" : "POSITION"}, {"bufferView" : 5, "byteOffset" : 12, "componentType" : 5126, "count" : 7652, "type" : "VEC2", "max" : [0.9870894551277161, 0.9870895743370056], "min" : [0.0002822680398821831, 0.012910544872283936], "name" : "TEXCOORD_0"}, {"bufferView" : 5, "byteOffset" : 20, "componentType" : 5126, "count" : 7652, "type" : "VEC3", "max" : [0.998295247554779, 0.9974220991134644, 0.9989866614341736], "min" : [-0.9999265670776367, -0.987051248550415, -0.9999939799308777], "name" : "NORMAL"}, {"bufferView" : 0, "byteOffset" : 53096, "componentType" : 5123, "count" : 4062, "type" : "SCALAR", "max" : [3627], "min" : [0]}, {"bufferView" : 6, "byteOffset" : 0, "componentType" : 5126, "count" : 3628, "type" : "VEC3", "max" : [0.23499341309070587, 0.17066815495491028, 0.21409395337104797], "min" : [-0.23499341309070587, 0.005193276330828667, -0.12155041098594666], "name" : "POSITION"}, {"bufferView" : 6, "byteOffset" : 12, "componentType" : 5126, "count" : 3628, "type" : "VEC2", "max" : [0.9763879776000977, 0.9864959716796875], "min" : [0.009003999643027782, 0.012317001819610596], "name" : "TEXCOORD_0"}, {"bufferView" : 6, "byteOffset" : 20, "componentType" : 5126, "count" : 3628, "type" : "VEC3", "max" : [0.9998108744621277, 0.9974526762962341, 0.9991324543952942], "min" : [-0.9998108744621277, -1.0000044107437134, -0.9991461634635925], "name" : "NORMAL"}, {"bufferView" : 0, "byteOffset" : 61220, "componentType" : 5123, "count" : 12144, "type" : "SCALAR", "max" : [10770], "min" : [0]}, {"bufferView" : 7, "byteOffset" : 0, "componentType" : 5126, "count" : 10771, "type" : "VEC3", "max" : [0.5220028758049011, 1.6439197063446045, 0.2104867547750473], "min" : [-0.5236560702323914, 0.9245649576187134, -0.2247418910264969], "name" : "POSITION"}, {"bufferView" : 7, "byteOffset" : 12, "componentType" : 5126, "count" : 10771, "type" : "VEC2", "max" : [0.9908592104911804, 0.9890256524085999], "min" : [0.011801958084106445, 0.01034557819366455], "name" : "TEXCOORD_0"}, {"bufferView" : 7, "byteOffset" : 20, "componentType" : 5126, "count" : 10771, "type" : "VEC3", "max" : [0.9994602799415588, 0.9928470253944397, 0.9998891949653625], "min" : [-0.9978382587432861, -0.999801754951477, -0.9998648762702942], "name" : "NORMAL"}, {"bufferView" : 0, "byteOffset" : 85508, "componentType" : 5123, "count" : 300, "type" : "SCALAR", "max" : [269], "min" : [0]}, {"bufferView" : 8, "byteOffset" : 0, "componentType" : 5126, "count" : 270, "type" : "VEC3", "max" : [0.027936376631259918, 1.675208568572998, 0.11773602664470673], "min" : [-0.027936376631259918, 1.639512300491333, 0.05092752352356911], "name" : "POSITION"}, {"bufferView" : 8, "byteOffset" : 12, "componentType" : 5126, "count" : 270, "type" : "VEC2", "max" : [0.9808249473571777, 0.983213484287262], "min" : [0.051069796085357666, 0.02829587459564209], "name" : "TEXCOORD_0"}, {"bufferView" : 8, "byteOffset" : 20, "componentType" : 5126, "count" : 270, "type" : "VEC3", "max" : [0.9971883296966553, 0.8770432472229004, 0.9974737763404846], "min" : [-0.9971883296966553, -0.9858412742614746, -0.7650184035301208], "name" : "NORMAL"}], "asset" : {"generator" : "Aspose.3D 23.4.0", "version" : "2.0"}, "buffers" : [{"uri" : "data:application/octet-stream;base64,", "byteLength" : 1463840}], "bufferViews" : [{"buffer" : 0, "byteOffset" : 0, "byteLength" : 86108, "target" : 34963}, {"buffer" : 0, "byteOffset" : 86112, "byteLength" : 19776, "byteStride" : 32, "target" : 34962}, {"buffer" : 0, "byteOffset" : 105892, "byteLength" : 19776, "byteStride" : 32, "target" : 34962}, {"buffer" : 0, "byteOffset" : 125672, "byteLength" : 148032, "byteStride" : 32, "target" : 34962}, {"buffer" : 0, "byteOffset" : 273708, "byteLength" : 393024, "byteStride" : 32, "target" : 34962}, {"buffer" : 0, "byteOffset" : 666736, "byteLength" : 268896, "byteStride" : 32, "target" : 34962}, {"buffer" : 0, "byteOffset" : 935636, "byteLength" : 129984, "byteStride" : 32, "target" : 34962}, {"buffer" : 0, "byteOffset" : 1065624, "byteLength" : 388608, "byteStride" : 32, "target" : 34962}, {"buffer" : 0, "byteOffset" : 1454236, "byteLength" : 9600, "byteStride" : 32, "target" : 34962}], "images" : [{"uri" : "data:image/jpeg;base64,"}, {"uri" : "data:image/jpeg;base64,"}, {"uri" : "data:image/jpeg;base64,"}, {"uri" : "data:image/jpeg;base64,"}, {"uri" : "data:image/jpeg;base64,"}, {"uri" : "data:image/jpeg;base64,"}, {"uri" : "data:image/jpeg;base64,"}, {"uri" : "data:image/jpeg;base64,"}, {"uri" : "data:image/jpeg;base64,"}, {"uri" : "data:image/jpeg;base64,"}, {"uri" : "data:image/jpeg;base64,"}, {"uri" : "data:image/jpeg;base64,"}, {"uri" : "data:image/jpeg;base64,"}], "materials" : [{"name" : "Wolf3D_Eye", "pbrMetallicRoughness" : {"baseColorFactor" : [1, 1, 1, 1], "baseColorTexture" : {"index" : 0, "texCoord" : 0}, "metallicFactor" : 0, "roughnessFactor" : 1}, "emissiveFactor" : [0, 0, 0], "alphaMode" : "OPAQUE", "doubleSided" : true}, {"name" : "Wolf3D_Eye.001", "pbrMetallicRoughness" : {"baseColorFactor" : [1, 1, 1, 1], "baseColorTexture" : {"index" : 1, "texCoord" : 0}, "metallicFactor" : 0, "roughnessFactor" : 1}, "emissiveFactor" : [0, 0, 0], "alphaMode" : "OPAQUE", "doubleSided" : true}, {"name" : "Wolf3D_Body", "pbrMetallicRoughness" : {"baseColorFactor" : [1, 1, 1, 1], "baseColorTexture" : {"index" : 3, "texCoord" : 0}, "metallicFactor" : 0, "roughnessFactor" : 0.8573318719863892}, "normalTexture" : {"index" : 2, "texCoord" : 0, "scale" : 1}, "emissiveFactor" : [0, 0, 0], "alphaMode" : "OPAQUE", "doubleSided" : true}, {"name" : "Wolf3D_Skin", "pbrMetallicRoughness" : {"baseColorFactor" : [1, 1, 1, 1], "baseColorTexture" : {"index" : 4, "texCoord" : 0}, "metallicFactor" : 0, "roughnessFactor" : 0.699999988079071}, "emissiveFactor" : [0, 0, 0], "alphaMode" : "OPAQUE", "doubleSided" : true}, {"name" : "Wolf3D_Outfit_Bottom", "pbrMetallicRoughness" : {"baseColorFactor" : [1, 1, 1, 1], "baseColorTexture" : {"index" : 6, "texCoord" : 0}, "metallicFactor" : 0, "roughnessFactor" : 0.9846045970916748}, "normalTexture" : {"index" : 5, "texCoord" : 0, "scale" : 1}, "emissiveFactor" : [0, 0, 0], "alphaMode" : "OPAQUE", "doubleSided" : true}, {"name" : "Wolf3D_Outfit_Footwear", "pbrMetallicRoughness" : {"baseColorFactor" : [1, 1, 1, 1], "baseColorTexture" : {"index" : 8, "texCoord" : 0}, "metallicFactor" : 0, "roughnessFactor" : 0.5}, "normalTexture" : {"index" : 7, "texCoord" : 0, "scale" : 1}, "emissiveFactor" : [0, 0, 0], "alphaMode" : "OPAQUE", "doubleSided" : true}, {"name" : "Wolf3D_Outfit_Top", "pbrMetallicRoughness" : {"baseColorFactor" : [1, 1, 1, 1], "baseColorTexture" : {"index" : 11, "texCoord" : 0}, "metallicFactor" : 0, "roughnessFactor" : 0.5}, "normalTexture" : {"index" : 10, "texCoord" : 0, "scale" : 1}, "emissiveTexture" : {"index" : 9, "texCoord" : 0}, "emissiveFactor" : [1, 1, 1], "alphaMode" : "OPAQUE", "doubleSided" : true}, {"name" : "Wolf3D_Teeth", "pbrMetallicRoughness" : {"baseColorFactor" : [1, 1, 1, 1], "baseColorTexture" : {"index" : 12, "texCoord" : 0}, "metallicFactor" : 0, "roughnessFactor" : 1}, "emissiveFactor" : [0, 0, 0], "alphaMode" : "OPAQUE", "doubleSided" : true}], "meshes" : [{"primitives" : [{"attributes" : {"POSITION" : 1, "TEXCOORD_0" : 2, "NORMAL" : 3}, "indices" : 0, "material" : 0, "mode" : 4}]}, {"primitives" : [{"attributes" : {"POSITION" : 5, "TEXCOORD_0" : 6, "NORMAL" : 7}, "indices" : 4, "material" : 1, "mode" : 4}]}, {"primitives" : [{"attributes" : {"POSITION" : 9, "TEXCOORD_0" : 10, "NORMAL" : 11}, "indices" : 8, "material" : 2, "mode" : 4}]}, {"primitives" : [{"attributes" : {"POSITION" : 13, "TEXCOORD_0" : 14, "NORMAL" : 15}, "indices" : 12, "material" : 3, "mode" : 4}]}, {"primitives" : [{"attributes" : {"POSITION" : 17, "TEXCOORD_0" : 18, "NORMAL" : 19}, "indices" : 16, "material" : 4, "mode" : 4}]}, {"primitives" : [{"attributes" : {"POSITION" : 21, "TEXCOORD_0" : 22, "NORMAL" : 23}, "indices" : 20, "material" : 5, "mode" : 4}]}, {"primitives" : [{"attributes" : {"POSITION" : 25, "TEXCOORD_0" : 26, "NORMAL" : 27}, "indices" : 24, "material" : 6, "mode" : 4}]}, {"primitives" : [{"attributes" : {"POSITION" : 29, "TEXCOORD_0" : 30, "NORMAL" : 31}, "indices" : 28, "material" : 7, "mode" : 4}]}], "nodes" : [{"mesh" : 0, "name" : "EyeLeft"}, {"mesh" : 1, "name" : "EyeRight"}, {"mesh" : 2, "name" : "Wolf3D_Body"}, {"mesh" : 3, "name" : "Wolf3D_Head"}, {"mesh" : 4, "name" : "Wolf3D_Outfit_Bottom"}, {"mesh" : 5, "name" : "Wolf3D_Outfit_Footwear"}, {"mesh" : 6, "name" : "Wolf3D_Outfit_Top"}, {"mesh" : 7, "name" : "Wolf3D_Teeth"}, {"children" : [0, 1, 2, 3, 4, 5, 6, 7], "matrix" : [0.009999999776482582, 0, 0, 0, 0, -1.3435885348189617E-09, 0.010000001120071118, 0, 0, -0.010000001120071118, -1.3435885348189617E-09, 0, 0, 0, 0, 1], "name" : "Armature"}], "samplers" : [{"magFilter" : 9729, "minFilter" : 9987, "wrapS" : 10497, "wrapT" : 10497}, {"magFilter" : 9729, "minFilter" : 9987, "wrapS" : 10497, "wrapT" : 10497}, {"magFilter" : 9729, "minFilter" : 9987, "wrapS" : 10497, "wrapT" : 10497}, {"magFilter" : 9729, "minFilter" : 9987, "wrapS" : 10497, "wrapT" : 10497}, {"magFilter" : 9729, "minFilter" : 9987, "wrapS" : 10497, "wrapT" : 10497}, {"magFilter" : 9729, "minFilter" : 9987, "wrapS" : 10497, "wrapT" : 10497}, {"magFilter" : 9729, "minFilter" : 9987, "wrapS" : 10497, "wrapT" : 10497}, {"magFilter" : 9729, "minFilter" : 9987, "wrapS" : 10497, "wrapT" : 10497}, {"magFilter" : 9729, "minFilter" : 9987, "wrapS" : 10497, "wrapT" : 10497}, {"magFilter" : 9729, "minFilter" : 9987, "wrapS" : 10497, "wrapT" : 10497}, {"magFilter" : 9729, "minFilter" : 9987, "wrapS" : 10497, "wrapT" : 10497}, {"magFilter" : 9729, "minFilter" : 9987, "wrapS" : 10497, "wrapT" : 10497}, {"magFilter" : 9729, "minFilter" : 9987, "wrapS" : 10497, "wrapT" : 10497}], "scene" : 0, "scenes" : [{"nodes" : [8]}], "textures" : [{"sampler" : 0, "source" : 0, "name" : ""}, {"sampler" : 1, "source" : 1, "name" : ""}, {"sampler" : 2, "source" : 2, "name" : ""}, {"sampler" : 3, "source" : 3, "name" : ""}, {"sampler" : 4, "source" : 4, "name" : ""}, {"sampler" : 5, "source" : 5, "name" : ""}, {"sampler" : 6, "source" : 6, "name" : ""}, {"sampler" : 7, "source" : 7, "name" : ""}, {"sampler" : 8, "source" : 8, "name" : ""}, {"sampler" : 9, "source" : 9, "name" : ""}, {"sampler" : 10, "source" : 10, "name" : ""}, {"sampler" : 11, "source" : 11, "name" : ""}, {"sampler" : 12, "source" : 12, "name" : ""}]}